<svg class="lds-spinner" width="200" height="200" xmlns="http://www.w3.org/2000/svg" viewBox="0 0 100 100" preserveAspectRatio="xMidYMid" style="background:0 0"><rect x="46" rx="18.4" ry="0" width="8" height="20" fill="#e4000d"><animate attributeName="opacity" values="1;0" keyTimes="0;1" dur="1s" begin="-0.9333333333333333s" repeatCount="indefinite"/></rect><rect x="46" rx="18.4" ry="0" width="8" height="20" fill="#e4000d" transform="rotate(24 50 50)"><animate attributeName="opacity" values="1;0" keyTimes="0;1" dur="1s" begin="-0.8666666666666667s" repeatCount="indefinite"/></rect><rect x="46" rx="18.4" ry="0" width="8" height="20" fill="#e4000d" transform="rotate(48 50 50)"><animate attributeName="opacity" values="1;0" keyTimes="0;1" dur="1s" begin="-0.8s" repeatCount="indefinite"/></rect><rect x="46" rx="18.4" ry="0" width="8" height="20" fill="#e4000d" transform="rotate(72 50 50)"><animate attributeName="opacity" values="1;0" keyTimes="0;1" dur="1s" begin="-0.7333333333333333s" repeatCount="indefinite"/></rect><rect x="46" rx="18.4" ry="0" width="8" height="20" fill="#e4000d" transform="rotate(96 50 50)"><animate attributeName="opacity" values="1;0" keyTimes="0;1" dur="1s" begin="-0.6666666666666666s" repeatCount="indefinite"/></rect><rect x="46" rx="18.4" ry="0" width="8" height="20" fill="#e4000d" transform="rotate(120 50 50)"><animate attributeName="opacity" values="1;0" keyTimes="0;1" dur="1s" begin="-0.6s" repeatCount="indefinite"/></rect><rect x="46" rx="18.4" ry="0" width="8" height="20" fill="#e4000d" transform="rotate(144 50 50)"><animate attributeName="opacity" values="1;0" keyTimes="0;1" dur="1s" begin="-0.5333333333333333s" repeatCount="indefinite"/></rect><rect x="46" rx="18.4" ry="0" width="8" height="20" fill="#e4000d" transform="rotate(168 50 50)"><animate attributeName="opacity" values="1;0" keyTimes="0;1" dur="1s" begin="-0.4666666666666667s" repeatCount="indefinite"/></rect><rect x="46" rx="18.4" ry="0" width="8" height="20" fill="#e4000d" transform="rotate(192 50 50)"><animate attributeName="opacity" values="1;0" keyTimes="0;1" dur="1s" begin="-0.4s" repeatCount="indefinite"/></rect><rect x="46" rx="18.4" ry="0" width="8" height="20" fill="#e4000d" transform="rotate(216 50 50)"><animate attributeName="opacity" values="1;0" keyTimes="0;1" dur="1s" begin="-0.3333333333333333s" repeatCount="indefinite"/></rect><rect x="46" rx="18.4" ry="0" width="8" height="20" fill="#e4000d" transform="rotate(240 50 50)"><animate attributeName="opacity" values="1;0" keyTimes="0;1" dur="1s" begin="-0.26666666666666666s" repeatCount="indefinite"/></rect><rect x="46" rx="18.4" ry="0" width="8" height="20" fill="#e4000d" transform="rotate(264 50 50)"><animate attributeName="opacity" values="1;0" keyTimes="0;1" dur="1s" begin="-0.2s" repeatCount="indefinite"/></rect><rect x="46" rx="18.4" ry="0" width="8" height="20" fill="#e4000d" transform="rotate(288 50 50)"><animate attributeName="opacity" values="1;0" keyTimes="0;1" dur="1s" begin="-0.13333333333333333s" repeatCount="indefinite"/></rect><rect x="46" rx="18.4" ry="0" width="8" height="20" fill="#e4000d" transform="rotate(312 50 50)"><animate attributeName="opacity" values="1;0" keyTimes="0;1" dur="1s" begin="-0.06666666666666667s" repeatCount="indefinite"/></rect><rect x="46" rx="18.4" ry="0" width="8" height="20" fill="#e4000d" transform="rotate(336 50 50)"><animate attributeName="opacity" values="1;0" keyTimes="0;1" dur="1s" begin="0s" repeatCount="indefinite"/></rect></svg>